<?xml version="1.0" encoding="utf-8"?>
<svg version="1.1" xmlns:xlink="http://www.w3.org/1999/xlink" width="21px" height="21px" xmlns="http://www.w3.org/2000/svg">
  <g transform="matrix(1 0 0 1 -10 -14 )">
    <path d="M 10 14  L 31 14  L 31 35  L 10 35  L 10 14  " fill-rule="nonzero" fill="#cccccc" stroke="none" />
    <path d="M 11 15  L 30 15  L 30 34  L 11 34  L 11 15  " fill-rule="nonzero" fill="#ffffff" stroke="none" />
    <path d="M 22.495 20.3  C 21.613 20.3  20.92 19.607  20.92 18.725  C 20.92 17.843  21.613 17.15  22.495 17.15  C 23.377 17.15  24.07 17.843  24.07 18.725  C 24.07 19.607  23.377 20.3  22.495 20.3  " fill-rule="nonzero" fill="#cccccc" stroke="none" />
    <path d="M 12 34  L 12 24.1  L 16.5 19.6  L 22.8 23.2  L 26.4 22.3  L 30 23.2  L 30 34  L 12 34  " fill-rule="nonzero" fill="#169bd5" stroke="none" />
  </g>
</svg>