<?xml version="1.0" encoding="utf-8"?>
<svg version="1.1" xmlns:xlink="http://www.w3.org/1999/xlink" width="14px" height="21px" xmlns="http://www.w3.org/2000/svg">
  <g transform="matrix(1 0 0 1 -150 -69 )">
    <path d="M 9.474609375 9.474609375  C 10.158203125 8.791015625  10.5 7.96614583333333  10.5 7  C 10.5 6.03385416666667  10.158203125 5.208984375  9.474609375 4.525390625  C 8.791015625 3.841796875  7.96614583333333 3.5  7 3.5  C 6.03385416666667 3.5  5.208984375 3.841796875  4.525390625 4.525390625  C 3.841796875 5.208984375  3.5 6.03385416666667  3.5 7  C 3.5 7.96614583333333  3.841796875 8.791015625  4.525390625 9.474609375  C 5.208984375 10.158203125  6.03385416666667 10.5  7 10.5  C 7.96614583333333 10.5  8.791015625 10.158203125  9.474609375 9.474609375  Z M 11.94921875 2.05078125  C 13.31640625 3.41796875  14 5.06770833333333  14 7  C 14 7.99348958333333  13.849609375 8.80924479166667  13.548828125 9.447265625  L 8.572265625 20.029296875  C 8.42643229166667 20.330078125  8.2099609375 20.5670572916667  7.9228515625 20.740234375  C 7.6357421875 20.9134114583333  7.328125 21  7 21  C 6.671875 21  6.3642578125 20.9134114583333  6.0771484375 20.740234375  C 5.7900390625 20.5670572916667  5.578125 20.330078125  5.44140625 20.029296875  L 0.451171875 9.447265625  C 0.150390625 8.80924479166667  0 7.99348958333333  0 7  C 0 5.06770833333333  0.68359375 3.41796875  2.05078125 2.05078125  C 3.41796875 0.683593750000001  5.06770833333333 0  7 0  C 8.93229166666667 0  10.58203125 0.683593750000001  11.94921875 2.05078125  Z " fill-rule="nonzero" fill="#00bfbf" stroke="none" transform="matrix(1 0 0 1 150 69 )" />
  </g>
</svg>