<?xml version="1.0" encoding="utf-8"?>
<svg version="1.1" xmlns:xlink="http://www.w3.org/1999/xlink" width="16px" height="18px" xmlns="http://www.w3.org/2000/svg">
  <g transform="matrix(1 0 0 1 -1328 -16 )">
    <path d="M 15.1614583333333 5.98197115384615  C 15.7204861111111 7.14302884615385  16 8.37980769230769  16 9.69230769230769  C 16 10.8173076923077  15.7881944444444 11.8918269230769  15.3645833333333 12.9158653846154  C 14.9409722222222 13.9399038461538  14.3715277777778 14.8233173076923  13.65625 15.5661057692308  C 12.9409722222222 16.3088942307692  12.0902777777778 16.9002403846154  11.1041666666667 17.3401442307692  C 10.1180555555556 17.7800480769231  9.08333333333333 18  8 18  C 6.91666666666667 18  5.88194444444445 17.7800480769231  4.89583333333333 17.3401442307692  C 3.90972222222222 16.9002403846154  3.05902777777778 16.3088942307692  2.34375 15.5661057692308  C 1.62847222222222 14.8233173076923  1.05902777777778 13.9399038461538  0.635416666666667 12.9158653846154  C 0.211805555555556 11.8918269230769  0 10.8173076923077  0 9.69230769230769  C 0 8.37980769230769  0.279513888888889 7.14302884615385  0.838541666666667 5.98197115384615  C 1.39756944444444 4.82091346153846  2.18402777777778 3.84735576923077  3.19791666666667 3.06129807692308  C 3.49652777777778 2.83052884615384  3.828125 2.74038461538461  4.19270833333333 2.79086538461538  C 4.55729166666667 2.84134615384615  4.84722222222222 3.02163461538461  5.0625 3.33173076923077  C 5.28472222222222 3.63461538461538  5.36979166666667 3.97536057692308  5.31770833333333 4.35396634615385  C 5.265625 4.73257211538462  5.09375 5.03725961538461  4.80208333333333 5.26802884615385  C 4.12152777777778 5.80168269230769  3.59548611111111 6.45432692307692  3.22395833333333 7.22596153846154  C 2.85243055555556 7.99759615384615  2.66666666666667 8.81971153846154  2.66666666666667 9.69230769230769  C 2.66666666666667 10.4423076923077  2.80729166666667 11.1580528846154  3.08854166666667 11.8395432692308  C 3.36979166666667 12.5210336538462  3.75 13.1105769230769  4.22916666666667 13.6081730769231  C 4.70833333333333 14.1057692307692  5.27604166666667 14.5006009615385  5.93229166666667 14.7926682692308  C 6.58854166666667 15.0847355769231  7.27777777777778 15.2307692307692  8 15.2307692307692  C 8.72222222222222 15.2307692307692  9.41145833333333 15.0847355769231  10.0677083333333 14.7926682692308  C 10.7239583333333 14.5006009615385  11.2916666666667 14.1057692307692  11.7708333333333 13.6081730769231  C 12.25 13.1105769230769  12.6302083333333 12.5210336538462  12.9114583333333 11.8395432692308  C 13.1927083333333 11.1580528846154  13.3333333333333 10.4423076923077  13.3333333333333 9.69230769230769  C 13.3333333333333 8.81971153846154  13.1475694444444 7.99759615384615  12.7760416666667 7.22596153846154  C 12.4045138888889 6.45432692307692  11.8784722222222 5.80168269230769  11.1979166666667 5.26802884615385  C 10.90625 5.03725961538461  10.734375 4.73257211538462  10.6822916666667 4.35396634615385  C 10.6302083333333 3.97536057692308  10.7152777777778 3.63461538461538  10.9375 3.33173076923077  C 11.1527777777778 3.02163461538461  11.4444444444444 2.84134615384615  11.8125 2.79086538461538  C 12.1805555555556 2.74038461538461  12.5104166666667 2.83052884615384  12.8020833333333 3.06129807692308  C 13.8159722222222 3.84735576923077  14.6024305555556 4.82091346153846  15.1614583333333 5.98197115384615  Z M 8.9375 0.411057692307692  C 9.20138888888889 0.685096153846152  9.33333333333333 1.00961538461538  9.33333333333333 1.38461538461538  L 9.33333333333333 8.30769230769231  C 9.33333333333333 8.68269230769231  9.20138888888889 9.00721153846154  8.9375 9.28125  C 8.67361111111111 9.55528846153846  8.36111111111111 9.69230769230769  8 9.69230769230769  C 7.63888888888889 9.69230769230769  7.32638888888889 9.55528846153846  7.0625 9.28125  C 6.79861111111111 9.00721153846154  6.66666666666667 8.68269230769231  6.66666666666667 8.30769230769231  L 6.66666666666667 1.38461538461538  C 6.66666666666667 1.00961538461538  6.79861111111111 0.685096153846152  7.0625 0.411057692307692  C 7.32638888888889 0.137019230769231  7.63888888888889 0  8 0  C 8.36111111111111 0  8.67361111111111 0.137019230769231  8.9375 0.411057692307692  Z " fill-rule="nonzero" fill="#ffffff" stroke="none" transform="matrix(1 0 0 1 1328 16 )" />
  </g>
</svg>