<?xml version="1.0" encoding="utf-8"?>
<svg version="1.1" xmlns:xlink="http://www.w3.org/1999/xlink" width="22px" height="16px" xmlns="http://www.w3.org/2000/svg">
  <g transform="matrix(1 0 0 1 -43 -5 )">
    <path d="M 12.0417515274949 15.1569892473118  C 11.4966055668703 15.7189964157706  11.1493550577054 16  11 16  C 10.8506449422946 16  10.5033944331297 15.7189964157706  9.95824847250509 15.1569892473118  C 9.41310251188052 14.594982078853  9.14052953156823 14.2375149342891  9.14052953156823 14.0845878136201  C 9.14052953156823 13.8399044205496  9.37389680923286 13.6334528076464  9.84063136456212 13.4652329749104  C 10.3073659198914 13.2970131421744  10.693822131704 13.2129032258065  11 13.2129032258065  C 11.306177868296 13.2129032258065  11.6926340801086 13.2970131421744  12.1593686354379 13.4652329749104  C 12.6261031907671 13.6334528076464  12.8594704684318 13.8399044205496  12.8594704684318 14.0845878136201  C 12.8594704684318 14.2375149342891  12.5868974881195 14.594982078853  12.0417515274949 15.1569892473118  Z M 15.0717922606925 12.031541218638  C 14.5079769178547 12.605017921147  14.1588594704684 12.8917562724014  14.0244399185336 12.8917562724014  C 14.0095044127631 12.8917562724014  13.8601493550577 12.7961768219833  13.5763747454175 12.605017921147  C 13.2926001357773 12.4138590203106  12.91361167685 12.2227001194743  12.4394093686354 12.031541218638  C 11.9652070604209 11.8403823178017  11.4854039375424 11.7448028673835  11 11.7448028673835  C 10.5145960624576 11.7448028673835  10.0347929395791 11.8403823178017  9.56059063136456 12.031541218638  C 9.08638832315003 12.2227001194743  8.70926680244399 12.4138590203106  8.42922606924644 12.605017921147  C 8.14918533604888 12.7961768219833  7.9979633401222 12.8917562724014  7.97556008146639 12.8917562724014  C 7.84114052953157 12.8917562724014  7.49202308214528 12.605017921147  6.92820773930754 12.031541218638  C 6.36439239646979 11.458064516129  6.08248472505092 11.1025089605735  6.08248472505092 10.9648745519713  C 6.08248472505092 10.8654719235364  6.11982348947726 10.7775388291517  6.19450101832994 10.7010752688172  C 6.77698574338086 10.1123058542413  7.50882552613714 9.64970131421744  8.39002036659878 9.31326164874552  C 9.27121520706042 8.9768219832736  10.1412084181942 8.80860215053763  11 8.80860215053763  C 11.8587915818058 8.80860215053763  12.7287847929396 8.9768219832736  13.6099796334012 9.31326164874552  C 14.4911744738629 9.64970131421744  15.2230142566191 10.1123058542413  15.8054989816701 10.7010752688172  C 15.8801765105227 10.7775388291517  15.9175152749491 10.8654719235364  15.9175152749491 10.9648745519713  C 15.9175152749491 11.1025089605735  15.6356076035302 11.458064516129  15.0717922606925 12.031541218638  Z M 18.1130346232179 8.91182795698925  C 17.5529531568228 9.48530465949821  17.2094365241005 9.77204301075269  17.0824847250509 9.77204301075269  C 17.000339443313 9.77204301075269  16.9144602851324 9.74145758661887  16.8248472505092 9.68028673835125  C 15.8092328581127 8.87741935483871  14.8682959945689 8.28673835125448  14.0020366598778 7.90824372759857  C 13.1357773251867 7.52974910394265  12.1350984385608 7.3405017921147  11 7.3405017921147  C 10.3652410047522 7.3405017921147  9.7286150712831 7.42461170848268  9.09012219959267 7.59283154121864  C 8.45162932790224 7.7610513739546  7.89528173794976 7.9636798088411  7.42107942973523 8.20071684587814  C 6.94687712152071 8.43775388291517  6.52308214528174 8.67479091995221  6.14969450101833 8.91182795698925  C 5.77630685675492 9.14886499402628  5.48133061778683 9.35149342891278  5.26476578411405 9.51971326164875  C 5.04820095044128 9.68793309438471  4.93245078071962 9.77204301075269  4.91751527494908 9.77204301075269  C 4.79056347589952 9.77204301075269  4.44704684317719 9.48530465949821  3.88696537678208 8.91182795698925  C 3.32688391038697 8.33835125448029  3.04684317718941 7.98279569892473  3.04684317718941 7.84516129032258  C 3.04684317718941 7.75340501792115  3.08418194161575 7.66929510155317  3.15885947046843 7.59283154121864  C 4.14460285132383 6.58351254480287  5.33944331296674 5.79976105137395  6.74338085539715 5.2415770609319  C 8.14731839782756 4.68339307048984  9.56619144602851 4.40430107526882  11 4.40430107526882  C 12.4338085539715 4.40430107526882  13.8526816021724 4.68339307048984  15.2566191446029 5.2415770609319  C 16.6605566870333 5.79976105137395  17.8553971486762 6.58351254480287  18.8411405295316 7.59283154121864  C 18.9158180583843 7.66929510155317  18.9531568228106 7.75340501792115  18.9531568228106 7.84516129032258  C 18.9531568228106 7.98279569892473  18.673116089613 8.33835125448029  18.1130346232179 8.91182795698925  Z M 21.1542769857434 5.80358422939068  C 20.5904616429056 6.37706093189964  20.245078071962 6.66379928315412  20.1181262729124 6.66379928315412  C 20.0359809911745 6.66379928315412  19.9538357094365 6.62939068100359  19.8716904276986 6.56057347670251  C 18.5349626612356 5.36009557945042  17.147827562797 4.45591397849462  15.7102851323829 3.84802867383513  C 14.2727427019688 3.24014336917563  12.7026476578411 2.93620071684588  11 2.93620071684588  C 9.29735234215886 2.93620071684588  7.72725729803123 3.24014336917563  6.28971486761711 3.84802867383513  C 4.85217243720299 4.45591397849462  3.46503733876443 5.36009557945042  2.12830957230143 6.56057347670251  C 2.04616429056348 6.62939068100359  1.96401900882553 6.66379928315412  1.88187372708758 6.66379928315412  C 1.75492192803802 6.66379928315412  1.40953835709437 6.37706093189964  0.845723014256619 5.80358422939068  C 0.281907671418873 5.23010752688172  0 4.87455197132616  0 4.73691756272402  C 0 4.63751493428913  0.0373387644263408 4.54958183990442  0.112016293279022 4.47311827956989  C 1.50848608282417 3.05089605734767  3.17006109979633 1.94982078853047  5.09674134419552 1.16989247311828  C 7.0234215885947 0.389964157706093  8.99117447386286 0  11 0  C 13.0088255261371 0  14.9765784114053 0.389964157706093  16.9032586558045 1.16989247311828  C 18.8299389002037 1.94982078853047  20.4915139171758 3.05089605734767  21.887983706721 4.47311827956989  C 21.9626612355737 4.54958183990442  22 4.63751493428913  22 4.73691756272402  C 22 4.87455197132616  21.7180923285811 5.23010752688172  21.1542769857434 5.80358422939068  Z " fill-rule="nonzero" fill="#ffffff" stroke="none" transform="matrix(1 0 0 1 43 5 )" />
  </g>
</svg>