<?xml version="1.0" encoding="utf-8"?>
<svg version="1.1" xmlns:xlink="http://www.w3.org/1999/xlink" width="19px" height="16px" xmlns="http://www.w3.org/2000/svg">
  <g transform="matrix(1 0 0 1 -15 -5 )">
    <path d="M 2.61886160714286 13.4270833333333  C 2.68247767857143 13.4895833333333  2.71428571428571 13.5694444444444  2.71428571428571 13.6666666666667  L 2.71428571428571 15.6666666666667  C 2.71428571428571 15.7638888888889  2.68247767857143 15.84375  2.61886160714286 15.90625  C 2.55524553571429 15.96875  2.47395833333333 16  2.375 16  L 0.339285714285714 16  C 0.240327380952381 16  0.159040178571429 15.96875  0.0954241071428572 15.90625  C 0.0318080357142857 15.84375  0 15.7638888888889  0 15.6666666666667  L 0 13.6666666666667  C 0 13.5694444444444  0.0318080357142857 13.4895833333333  0.0954241071428572 13.4270833333333  C 0.159040178571429 13.3645833333333  0.240327380952381 13.3333333333333  0.339285714285714 13.3333333333333  L 2.375 13.3333333333333  C 2.47395833333333 13.3333333333333  2.55524553571429 13.3645833333333  2.61886160714286 13.4270833333333  Z M 6.69029017857143 12.09375  C 6.75390625 12.15625  6.78571428571429 12.2361111111111  6.78571428571429 12.3333333333333  L 6.78571428571429 15.6666666666667  C 6.78571428571429 15.7638888888889  6.75390625 15.84375  6.69029017857143 15.90625  C 6.62667410714286 15.96875  6.54538690476191 16  6.44642857142857 16  L 4.41071428571429 16  C 4.31175595238095 16  4.23046875 15.96875  4.16685267857143 15.90625  C 4.10323660714286 15.84375  4.07142857142857 15.7638888888889  4.07142857142857 15.6666666666667  L 4.07142857142857 12.3333333333333  C 4.07142857142857 12.2361111111111  4.10323660714286 12.15625  4.16685267857143 12.09375  C 4.23046875 12.03125  4.31175595238095 12  4.41071428571429 12  L 6.44642857142857 12  C 6.54538690476191 12  6.62667410714286 12.03125  6.69029017857143 12.09375  Z M 10.76171875 9.42708333333333  C 10.8253348214286 9.48958333333333  10.8571428571429 9.56944444444444  10.8571428571429 9.66666666666667  L 10.8571428571429 15.6666666666667  C 10.8571428571429 15.7638888888889  10.8253348214286 15.84375  10.76171875 15.90625  C 10.6981026785714 15.96875  10.6168154761905 16  10.5178571428571 16  L 8.48214285714286 16  C 8.38318452380953 16  8.30189732142857 15.96875  8.23828125 15.90625  C 8.17466517857143 15.84375  8.14285714285714 15.7638888888889  8.14285714285714 15.6666666666667  L 8.14285714285714 9.66666666666667  C 8.14285714285714 9.56944444444444  8.17466517857143 9.48958333333333  8.23828125 9.42708333333333  C 8.30189732142857 9.36458333333333  8.38318452380953 9.33333333333333  8.48214285714286 9.33333333333333  L 10.5178571428571 9.33333333333333  C 10.6168154761905 9.33333333333333  10.6981026785714 9.36458333333333  10.76171875 9.42708333333333  Z M 14.8331473214286 5.42708333333333  C 14.8967633928571 5.48958333333333  14.9285714285714 5.56944444444444  15 5.66666666666667  L 15 15.6666666666667  C 14.9285714285714 15.7638888888889  14.8967633928571 15.84375  14.8331473214286 15.90625  C 14.76953125 15.96875  14.688244047619 16  14.5892857142857 16  L 12.5535714285714 16  C 12.4546130952381 16  12.3733258928571 15.96875  12.3097098214286 15.90625  C 12.24609375 15.84375  12.2142857142857 15.7638888888889  12 15.6666666666667  L 12 5.66666666666667  C 12.2142857142857 5.56944444444444  12.24609375 5.48958333333333  12.3097098214286 5.42708333333333  C 12.3733258928571 5.36458333333333  12.4546130952381 5.33333333333333  12.5535714285714 5.33333333333333  L 14.5892857142857 5.33333333333333  C 14.688244047619 5.33333333333333  14.76953125 5.36458333333333  14.8331473214286 5.42708333333333  Z M 18.9045758928571 0.09375  C 18.9681919642857 0.15625  19 0.236111111111109  19 0.333333333333334  L 19 15.6666666666667  C 19 15.7638888888889  18.9681919642857 15.84375  18.9045758928571 15.90625  C 18.8409598214286 15.96875  18.7596726190476 16  18.6607142857143 16  L 16.625 16  C 16.5260416666667 16  16.4447544642857 15.96875  16.3811383928571 15.90625  C 16.3175223214286 15.84375  16.2857142857143 15.7638888888889  16 15.6666666666667  L 16 0.333333333333334  C 16.2857142857143 0.236111111111109  16.3175223214286 0.15625  16.3811383928571 0.09375  C 16.4447544642857 0.03125  16.5260416666667 0  16.625 0  L 18.6607142857143 0  C 18.7596726190476 0  18.8409598214286 0.03125  18.9045758928571 0.09375  Z " fill-rule="nonzero" fill="#ffffff" stroke="none" transform="matrix(1 0 0 1 15 5 )" />
  </g>
</svg>