<?xml version="1.0" encoding="utf-8"?>
<svg version="1.1" xmlns:xlink="http://www.w3.org/1999/xlink" width="15px" height="22px" xmlns="http://www.w3.org/2000/svg">
  <g transform="matrix(1 0 0 1 -1222 -232 )">
    <path d="M 15 11  C 15 11.2365591397849  14.9083011583012 11.4412737799835  14.7249034749035 11.6141439205955  L 3.98166023166023 21.7406947890819  C 3.79826254826255 21.913564929694  3.58108108108108 22  3.33011583011583 22  C 3.07915057915058 22  2.86196911196911 21.913564929694  2.67857142857143 21.7406947890819  L 0.275096525096525 19.4751861042184  C 0.0916988416988418 19.3023159636063  0 19.0976013234078  0 18.8610421836228  C 0 18.6244830438379  0.0916988416988418 18.4197684036394  0.275096525096525 18.2468982630273  L 7.96332046332046 11  L 0.275096525096525 3.75310173697271  C 0.0916988416988418 3.58023159636063  0 3.37551695616212  0 3.13895781637717  C 0 2.90239867659222  0.0916988416988418 2.69768403639371  0.275096525096525 2.52481389578164  L 2.67857142857143 0.259305210918114  C 2.86196911196911 0.086435070306037  3.07915057915058 0  3.33011583011583 0  C 3.58108108108108 0  3.79826254826255 0.086435070306037  3.98166023166023 0.259305210918114  L 14.7249034749035 10.3858560794045  C 14.9083011583012 10.5587262200165  15 10.7634408602151  15 11  Z " fill-rule="nonzero" fill="#d7d7d7" stroke="none" transform="matrix(1 0 0 1 1222 232 )" />
  </g>
</svg>