<?xml version="1.0" encoding="utf-8"?>
<svg version="1.1" xmlns:xlink="http://www.w3.org/1999/xlink" width="50px" height="37px" xmlns="http://www.w3.org/2000/svg">
  <g transform="matrix(1 0 0 1 -57 -139 )">
    <path d="M 33.0729166666667 21.6534090909091  C 33.2465277777778 21.4431818181818  33.3333333333333 21.2329545454545  33.3333333333333 21.0227272727273  C 33.3333333333333 20.7774621212121  33.2552083333333 20.5759943181818  33.0989583333333 20.4183238636364  C 32.9427083333333 20.2606534090909  32.7430555555556 20.1818181818182  32.5 20.1818181818182  L 26.6666666666667 20.1818181818182  L 26.6666666666667 10.9318181818182  C 26.6666666666667 10.704071969697  26.5842013888889 10.5069839015152  26.4192708333333 10.3405539772727  C 26.2543402777778 10.1741240530303  26.0590277777778 10.0909090909091  25.8333333333333 10.0909090909091  L 20.8333333333333 10.0909090909091  C 20.6076388888889 10.0909090909091  20.4123263888889 10.1741240530303  20.2473958333333 10.3405539772727  C 20.0824652777778 10.5069839015152  20 10.704071969697  20 10.9318181818182  L 20 20.1818181818182  L 14.1666666666667 20.1818181818182  C 13.9409722222222 20.1818181818182  13.7456597222222 20.2650331439394  13.5807291666667 20.4314630681818  C 13.4157986111111 20.5978929924242  13.3333333333333 20.7949810606061  13.3333333333333 21.0227272727273  C 13.3333333333333 21.2679924242424  13.4114583333333 21.4694602272727  13.5677083333333 21.6271306818182  L 22.734375 30.8771306818182  C 22.890625 31.0348011363636  23.0902777777778 31.1136363636364  23.3333333333333 31.1136363636364  C 23.5763888888889 31.1136363636364  23.7760416666667 31.0348011363636  23.9322916666667 30.8771306818182  L 33.0729166666667 21.6534090909091  Z M 47.8255208333333 20.6416903409091  C 49.2751736111111 22.4724195075758  50 24.561553030303  50 26.9090909090909  C 50 29.6946022727273  49.0234375 32.0727982954545  47.0703125 34.0436789772727  C 45.1171875 36.0145596590909  42.7604166666667 37  40 37  L 11.6666666666667 37  C 8.45486111111111 37  5.70746527777778 35.8481297348485  3.42447916666667 33.5443892045455  C 1.14149305555556 31.2406486742424  0 28.4682765151515  0 25.2272727272727  C 0 22.9498106060606  0.607638888888889 20.8475378787879  1.82291666666667 18.9204545454545  C 3.03819444444444 16.9933712121212  4.67013888888889 15.5480587121212  6.71875 14.5845170454545  C 6.68402777777778 14.0589488636364  6.66666666666667 13.6822916666667  6.66666666666667 13.4545454545455  C 6.66666666666667 9.7405303030303  7.96875 6.56960227272727  10.5729166666667 3.94176136363636  C 13.1770833333333 1.31392045454546  16.3194444444444 0  20 0  C 22.7083333333333 0  25.1866319444445 0.762073863636365  27.4348958333333 2.28622159090909  C 29.6831597222222 3.81036931818182  31.3194444444444 5.83380681818182  32.34375 8.35653409090909  C 33.5763888888889 7.27035984848485  35.0173611111111 6.72727272727273  36.6666666666667 6.72727272727273  C 38.5069444444444 6.72727272727273  40.078125 7.38423295454546  41.3802083333333 8.69815340909091  C 42.6822916666667 10.0120738636364  43.3333333333333 11.5975378787879  43.3333333333333 13.4545454545455  C 43.3333333333333 14.7859848484848  42.9774305555556 15.9947916666667  42.265625 17.0809659090909  C 44.5225694444445 17.624053030303  46.3758680555556 18.8109611742424  47.8255208333333 20.6416903409091  Z " fill-rule="nonzero" fill="#00bfbf" stroke="none" transform="matrix(1 0 0 1 57 139 )" />
  </g>
</svg>