<?xml version="1.0" encoding="utf-8"?>
<svg version="1.1" xmlns:xlink="http://www.w3.org/1999/xlink" width="43px" height="50px" xmlns="http://www.w3.org/2000/svg">
  <g transform="matrix(1 0 0 1 -60 -282 )">
    <path d="M 12.5416666666667 0  L 30.4583333333333 0  C 33.9110243055556 0  36.8644748263889 0.869605654761907  39.3186848958333 2.60881696428572  C 41.7728949652778 4.34802827380952  43 6.45461309523809  43 8.92857142857143  L 43 33.9285714285714  C 43 36.3467261904762  41.8288845486111 38.4114583333333  39.4866536458333 40.1227678571429  C 37.1444227430556 41.8340773809524  34.2936197916667 42.7362351190476  30.9342447916667 42.8292410714286  L 36.8971354166667 48.4654017857143  C 37.1957465277778 48.7444196428571  37.2703993055556 49.0699404761905  37.12109375 49.4419642857143  C 36.9717881944444 49.8139880952381  36.6918402777778 50  36.28125 50  L 6.71875 50  C 6.30815972222222 50  6.02821180555556 49.8139880952381  5.87890625 49.4419642857143  C 5.72960069444444 49.0699404761905  5.80425347222222 48.7444196428571  6.10286458333333 48.4654017857143  L 12.0657552083333 42.8292410714286  C 8.70638020833333 42.7362351190476  5.85557725694444 41.8340773809524  3.51334635416667 40.1227678571429  C 1.17111545138889 38.4114583333333  0 36.3467261904762  0 33.9285714285714  L 0 8.92857142857143  C 0 6.45461309523809  1.22710503472222 4.34802827380952  3.68131510416667 2.60881696428572  C 6.13552517361111 0.869605654761907  9.08897569444444 0  12.5416666666667 0  Z M 17.6927083333333 35.9375  C 18.7378472222222 36.9791666666667  20.0069444444444 37.5  21.5 37.5  C 22.9930555555556 37.5  24.2621527777778 36.9791666666667  25.3072916666667 35.9375  C 26.3524305555556 34.8958333333333  26.875 33.6309523809524  26.875 32.1428571428571  C 26.875 30.6547619047619  26.3524305555556 29.389880952381  25.3072916666667 28.3482142857143  C 24.2621527777778 27.3065476190476  22.9930555555556 26.7857142857143  21.5 26.7857142857143  C 20.0069444444444 26.7857142857143  18.7378472222222 27.3065476190476  17.6927083333333 28.3482142857143  C 16.6475694444444 29.389880952381  16.125 30.6547619047619  16.125 32.1428571428571  C 16.125 33.6309523809524  16.6475694444444 34.8958333333333  17.6927083333333 35.9375  Z M 6 22  L 37 22  L 37 8  L 6 8  L 6 22  Z " fill-rule="nonzero" fill="#00bfbf" stroke="none" transform="matrix(1 0 0 1 60 282 )" />
  </g>
</svg>